<?xml version="1.0" encoding="UTF-8" standalone="no"?>
<!DOCTYPE svg PUBLIC "-//W3C//DTD SVG 1.1//EN" "http://www.w3.org/Graphics/SVG/1.1/DTD/svg11.dtd">
<svg width="100%" height="100%" viewBox="0 0 512 512" version="1.1" xmlns="http://www.w3.org/2000/svg" xmlns:xlink="http://www.w3.org/1999/xlink" xml:space="preserve" xmlns:serif="http://www.serif.com/" style="fill-rule:evenodd;clip-rule:evenodd;stroke-linejoin:round;stroke-miterlimit:1.41421;">
    <path d="M444.84,83.16C398.036,32.052 330.763,0 256,0C114.615,0 0,114.615 0,256L48,256C48,141.125 141.125,48 256,48C317.51,48 372.771,74.709 410.848,117.153L336,192L512,192L512,16L444.84,83.16Z" style="fill:white;fill-rule:nonzero;stroke:white;stroke-width:1px;"/>
    <path d="M464,256C464,370.875 370.875,464 256,464C194.49,464 139.229,437.291 101.153,394.847L176,320L0,320L0,496L67.16,428.84C113.964,479.948 181.237,512 256,512C397.385,512 512,397.385 512,256L464,256Z" style="fill:white;fill-rule:nonzero;stroke:white;stroke-width:1px;"/>
</svg>
